# xmcd CD database file
#
# Track frame offsets:
#	150
#	14610
#	33137
#	51820
#	70812
#	89747
#	108382
#	126227
#	145488
#	163986
#	190750
#	213295
#
# Disc length: 3098 seconds
#
# Revision: 0
# Processed by: cddbd v1.5.2PL0 Copyright (c) Steve Scherf et al.
# Submitted via: CDex 1.70beta2
#
DISCID=b00c180c
DTITLE=Tim Branston - Elmer Goes East
DYEAR=2000
DGENRE=Blues
TTITLE0=Crystal Ball
TTITLE1=South of Somewhere
TTITLE2=Underground Love
TTITLE3=Yellow Hair
TTITLE4=Mumbo Jumbo
TTITLE5=Peter Kropotkin
TTITLE6=M-I 3
TTITLE7=Scottish Takeaway
TTITLE8=Officer Zamora
TTITLE9=Whisky Bottle Blues
TTITLE10=Judgement Day
TTITLE11=Cloven Hoof Christian
EXTD=YEAR: 2000
EXTT0=
EXTT1=
EXTT2=
EXTT3=
EXTT4=
EXTT5=
EXTT6=
EXTT7=
EXTT8=
EXTT9=
EXTT10=
EXTT11=
PLAYORDER=
